# This file uses centimeters as units for non-parametric coordinates.

mtllib Rock4_Low.mtl
g default
v -0.673467 -0.135861 -0.717247
v 0.510996 0.721474 -0.274419
v 0.756137 -0.406708 -0.156280
v 0.059232 -0.408795 0.639504
v -0.364980 0.843811 -0.022077
v 0.557856 0.316626 -0.950397
v -0.769346 -0.139427 -0.252085
v -0.268763 0.589409 -0.938591
v 0.079786 0.340172 0.599826
v 0.573544 -0.402084 -0.882954
v 0.799734 0.096039 -0.203107
v -0.698654 0.336261 -0.232789
v 0.698198 0.322219 0.139601
v -0.567669 0.684068 -0.118250
v 0.457515 0.262548 0.461117
v -0.516844 0.684030 -0.620465
v -0.064635 0.009690 0.656511
v -0.501602 0.446306 0.301228
v 0.512178 0.687491 -0.635434
v 0.285828 0.450012 -1.043869
v -0.286078 -0.407147 -1.103229
v 0.259170 0.904233 -0.234489
v -0.672437 -0.281238 0.087841
v 0.060565 -0.406827 -1.154371
v -0.603882 0.609727 -0.063097
v 0.650936 -0.407129 -0.746117
v 0.348025 0.659341 0.334663
v 0.361117 -0.401941 -1.062850
v 0.068376 0.655729 0.461999
v -0.505192 -0.404128 -0.966807
v -0.496226 -0.109157 -1.022271
v 0.524870 0.394279 0.371200
v -0.595673 0.125475 -0.896543
v -0.724940 -0.405816 -0.432081
v -0.273498 0.897700 -0.177916
v -0.673012 -0.407769 -0.684413
v 0.359138 -0.406554 0.525438
v -0.435015 0.799885 -0.079370
v 0.724125 -0.396925 0.006108
v -0.541559 0.318210 -0.943954
v 0.296588 0.525005 -0.999086
v 0.413355 0.725025 0.107057
v 0.597072 0.432856 -0.791485
v -0.674993 -0.409470 0.106248
v -0.480085 0.719276 -0.590120
v 0.479044 0.404761 -0.926884
v -0.615359 -0.408674 0.305348
v -0.524356 -0.224953 -0.986600
v 0.327369 0.099565 -1.108760
v 0.645950 -0.409330 0.206752
v -0.264997 0.721696 0.306219
v -0.749362 -0.409077 -0.089085
v -0.340383 0.545384 -0.935245
v 0.762027 0.114833 -0.480348
v -0.047788 -0.207596 0.654578
v -0.567239 0.536379 -0.721025
v 0.368294 0.380755 -1.067253
v -0.776657 -0.343426 -0.190500
v -0.028716 0.045270 0.654703
v 0.315979 0.858998 -0.354237
v -0.144333 -0.411299 -1.118041
v 0.423366 -0.156634 -1.061273
v -0.500783 0.502367 0.280684
v 0.438648 0.742778 -0.656349
v 0.727687 -0.269744 0.098962
v 0.573560 -0.189135 -0.923143
v 0.569240 0.685802 -0.139012
v -0.559099 0.321330 -0.926212
v -0.123126 0.685466 0.383905
v 0.470338 -0.406731 0.441724
v -0.518775 0.636560 -0.672067
v 0.551572 -0.050656 -0.974139
v 0.454148 0.781892 -0.128785
v -0.555245 -0.406050 -0.904455
v 0.430193 -0.345314 0.496217
v -0.644712 -0.410035 0.218447
v 0.683390 -0.406168 -0.673108
v 0.274242 0.613008 -0.954370
v -0.174535 -0.398813 0.618695
v -0.760588 -0.408275 -0.260289
v 0.111352 0.588027 -0.993847
v 0.402337 0.821532 -0.016494
vt 0.694479 0.409926
vt 0.795361 0.383134
vt 0.722465 0.440367
vt 0.561284 0.206331
vt 0.514130 0.128397
vt 0.565112 0.130230
vt 0.848687 0.825847
vt 0.870394 0.900192
vt 0.811788 0.830741
vt 0.803743 0.881297
vt 0.828570 0.914593
vt 0.611313 0.366281
vt 0.511482 0.286833
vt 0.508562 0.384288
vt 0.462116 0.295671
vt 0.452570 0.916737
vt 0.803091 0.534311
vt 0.483029 0.853756
vt 0.585891 0.184368
vt 0.493753 0.063519
vt 0.583862 0.073448
vt 0.441802 0.335543
vt 0.461851 0.285785
vt 0.570113 0.323800
vt 0.613278 0.393361
vt 0.523840 0.382838
vt 0.718950 0.346158
vt 0.550503 0.482826
vt 0.779471 0.416162
vt 0.790434 0.490277
vt 0.727668 0.465544
vt 0.832579 0.468314
vt 0.859930 0.402653
vt 0.855775 0.362545
vt 0.596605 0.114287
vt 0.549928 0.328405
vt 0.808733 0.884317
vt 0.871873 0.945919
vt 0.882814 0.913510
vt 0.557731 0.418657
vt 0.571403 0.291200
vt 0.620534 0.063215
vt 0.867284 0.380962
vt 0.561234 0.209096
vt 0.598827 0.181066
vt 0.507678 0.007136
vt 0.589151 0.076057
vt 0.712343 0.462451
vt 0.770385 0.489110
vt 0.514207 0.218428
vt 0.542103 0.408460
vt 0.526657 0.410294
vt 0.503933 0.089004
vt 0.525715 0.853107
vt 0.506991 0.413712
vt 0.468276 0.386751
vt 0.774815 0.513691
vt 0.540040 0.201398
vt 0.512301 0.179620
vt 0.802489 0.855666
vt 0.501682 0.212911
vt 0.484127 0.146708
vt 0.493027 0.120022
vt 0.567741 0.312250
vt 0.482664 0.175149
vt 0.481899 0.202833
vt 0.859175 0.832368
vt 0.509043 0.279964
vt 0.866440 0.824480
vt 0.900496 0.821871
vt 0.487194 0.107887
vt 0.490475 0.085344
vt 0.427791 0.353816
vt 0.704123 0.486466
vt 0.418072 0.348355
vt 0.492224 0.073109
vt 0.481727 0.211792
vt 0.485129 0.127148
vt 0.439944 0.354376
vt 0.508355 0.852469
vt 0.818698 0.498388
vt 0.828299 0.478495
vt 0.570920 0.992242
vt 0.603884 0.175129
vt 0.606946 0.345946
vt 0.621858 0.044609
vt 0.605661 0.120040
vt 0.553007 0.889532
vt 0.560611 0.942203
vt 0.479151 0.240284
vt 0.784548 0.835204
vt 0.553238 0.005237
vt 0.736161 0.512786
vt 0.448871 0.951530
vt 0.536919 0.970616
vt 0.459345 0.959927
vt 0.500979 0.276316
vt 0.444794 0.855733
vt 0.520599 0.428369
vt 0.704899 0.361213
vt 0.681782 0.471886
vt 0.681476 0.410703
vt 0.687493 0.484033
vt 0.881434 0.354804
vt 0.917313 0.837023
vt 0.781735 0.328494
vt 0.837761 0.952539
vt 0.815926 0.964604
vt 0.895088 0.961100
vt 0.915536 0.906111
vn 0.877674 0.446776 -0.173435
vn 0.982517 0.177270 -0.056883
vn 0.896302 0.375541 -0.235823
vn -0.958688 0.148898 -0.242378
vn -0.990141 0.115496 -0.079254
vn -0.982150 0.187956 0.007378
vn 0.345901 -0.318902 0.882414
vn 0.565045 0.076488 0.821507
vn 0.301552 -0.163899 0.939257
vn -0.501292 0.165689 0.849266
vn 0.133853 0.314725 0.939698
vn -0.376168 0.327640 0.866689
vn -0.216268 0.918075 -0.332216
vn 0.008386 0.935217 -0.353977
vn -0.085172 0.873109 -0.480028
vn 0.065722 0.105208 -0.992276
vn 0.246506 -0.779816 -0.575432
vn -0.081687 -0.079717 -0.993465
vn -0.930880 0.328450 -0.159947
vn -0.767358 0.006501 0.641185
vn -0.667583 0.169133 0.725071
vn -0.051664 0.872840 -0.485265
vn -0.195504 0.224000 -0.954779
vn -0.091230 0.930998 0.353440
vn 0.047788 0.880051 0.472469
vn 0.066203 0.963957 0.257689
vn 0.883529 0.466284 0.044225
vn 0.827879 0.272243 0.490408
vn 0.949306 0.048431 -0.310600
vn 0.913962 -0.001084 -0.405798
vn 0.826396 0.092592 -0.555424
vn 0.968930 -0.100516 -0.225990
vn 0.952287 -0.289022 -0.098057
vn 0.874092 -0.006552 0.485717
vn -0.932553 0.257439 0.253122
vn -0.156515 0.963116 -0.218885
vn 0.324257 0.039015 0.945164
vn 0.473977 0.433611 0.766373
vn 0.726874 0.459891 0.510054
vn 0.278855 0.854689 0.437889
vn -0.790199 0.605127 0.096986
vn -0.141015 0.809958 0.569284
vn 0.931462 -0.267042 0.247119
vn -0.431204 0.392739 -0.812292
vn -0.549275 0.595614 -0.586123
vn -0.477417 0.030002 0.878165
vn -0.631198 0.492139 0.599490
vn 0.577265 0.565424 -0.589119
vn 0.619768 -0.015520 -0.784631
vn -0.237083 0.137342 -0.961732
vn 0.245950 0.913903 0.322938
vn 0.577003 0.813831 -0.068898
vn -0.939164 0.122682 0.320810
vn -0.290367 -0.484555 -0.825163
vn 0.639114 0.768569 -0.028907
vn 0.390894 0.836075 -0.384942
vn 0.559886 -0.095712 -0.823023
vn -0.934307 0.081767 -0.346966
vn -0.948604 0.000186 -0.316465
vn -0.064529 -0.059583 0.996135
vn -0.781697 -0.085147 -0.617819
vn -0.889460 -0.418306 -0.184069
vn -0.972708 0.062921 0.223340
vn -0.594059 0.802501 -0.055558
vn -0.384223 -0.912778 -0.138596
vn -0.691546 -0.606221 -0.392759
vn 0.757314 -0.004413 0.653036
vn -0.860799 0.494967 -0.118457
vn 0.393212 -0.862046 0.319783
vn 0.125306 -0.989590 0.070788
vn -0.459165 -0.877482 0.138541
vn -0.199810 -0.977712 0.064458
vn 0.586636 0.535241 -0.607763
vn 0.451387 0.303062 -0.839287
vn -0.112351 0.202869 -0.972739
vn -0.572943 -0.800736 0.174809
vn -0.315767 -0.849379 -0.422902
vn -0.618629 -0.778010 -0.109539
vn 0.230378 0.730578 -0.642793
vn 0.003052 -0.999941 -0.010435
vn 0.682341 -0.227089 -0.694868
vn 0.132365 -0.987917 -0.080619
s 1
g PolySphere
usemtl PolySphereSG
f 19/1/1 11/2/2 43/3/3
f 68/4/4 7/5/5 12/6/6
f 37/7/7 15/8/8 4/9/9
f 17/10/10 9/11/11 69/108/12
f 45/13/13 60/14/14 8/15/15
f 49/16/16 28/98/17 24/18/18
f 12/6/6 56/19/19 68/4/4
f 47/20/20 17/92/10 18/21/21
f 8/15/15 60/14/14 81/22/22
f 24/18/18 53/95/23 49/16/16
f 5/24/24 29/25/25 22/26/26
f 67/27/27 13/106/28 11/2/2
f 54/29/29 66/30/30 6/31/31
f 77/32/32 11/2/2 3/33/33
f 11/2/2 13/106/28 65/34/34
f 25/35/35 47/20/20 18/21/21
f 35/36/36 5/24/24 22/26/26
f 15/8/8 9/11/11 59/37/37
f 27/38/38 32/39/39 42/109/40
f 56/19/19 25/35/35 14/87/41
f 25/35/35 51/42/42 14/87/41
f 39/43/43 3/33/33 11/2/2
f 65/105/34 13/110/28 15/8/8
f 42/109/40 32/39/39 13/110/28
f 40/89/44 71/83/45 53/95/23
f 45/13/13 53/23/23 71/97/45
f 17/92/10 47/20/20 79/46/46
f 59/37/37 4/9/9 15/8/8
f 63/47/47 25/35/35 18/21/21
f 18/21/21 17/92/10 69/86/12
f 19/1/1 67/27/27 11/2/2
f 22/26/26 60/14/14 35/36/36
f 19/1/1 43/3/3 46/48/48
f 72/49/49 49/93/16 6/31/31
f 31/88/50 53/95/23 24/18/18
f 82/51/51 22/26/26 29/25/25
f 22/26/26 73/52/52 60/14/14
f 12/6/6 7/5/5 23/53/53
f 24/18/18 21/54/54 31/88/50
f 73/52/52 2/55/55 64/56/56
f 13/28/28 67/99/27 42/40/40
f 25/35/35 56/19/19 12/6/6
f 12/6/6 23/53/53 25/35/35
f 54/29/29 77/32/32 66/30/30
f 9/11/11 15/8/8 27/38/38
f 27/38/38 42/109/40 29/107/25
f 62/57/57 28/17/17 49/93/16
f 29/107/25 69/108/12 9/11/11
f 27/38/38 29/107/25 9/11/11
f 33/58/58 1/59/59 7/5/5
f 4/9/9 55/60/60 79/91/46
f 48/61/61 31/50/50 21/90/54
f 1/59/59 33/58/58 48/61/61
f 32/39/39 27/38/38 15/8/8
f 32/39/39 15/8/8 13/110/28
f 31/50/50 48/61/61 33/58/58
f 31/88/50 40/89/44 53/95/23
f 1/59/59 34/62/62 7/5/5
f 58/63/63 23/53/53 7/5/5
f 45/13/13 35/36/36 60/14/14
f 5/24/24 35/36/36 38/64/64
f 1/59/59 36/65/65 34/62/62
f 74/66/66 36/65/65 1/59/59
f 65/105/34 15/8/8 75/67/67
f 14/41/41 5/24/24 38/64/64
f 14/41/41 45/13/13 16/68/68
f 70/69/69 50/70/70 65/105/34
f 31/50/50 33/58/58 68/4/4
f 68/4/4 33/58/58 7/5/5
f 64/102/56 19/1/1 46/48/48
f 64/102/56 2/100/55 19/1/1
f 82/51/51 73/52/52 22/26/26
f 2/55/55 82/51/51 67/99/27
f 6/31/31 46/48/48 43/3/3
f 6/31/31 43/3/3 54/29/29
f 23/53/53 52/71/71 44/72/72
f 45/13/13 14/41/41 38/64/64
f 38/64/64 35/36/36 45/13/13
f 41/101/73 57/74/74 20/103/75
f 49/16/16 53/95/23 20/96/75
f 25/35/35 23/53/53 47/20/20
f 76/76/76 23/53/53 44/72/72
f 48/61/61 21/90/54 30/77/77
f 74/66/66 1/59/59 48/61/61
f 57/74/74 6/31/31 49/93/16
f 49/16/16 20/96/75 57/94/74
f 14/41/41 51/85/42 5/24/24
f 29/25/25 5/24/24 51/85/42
f 80/78/78 58/63/63 7/5/5
f 8/15/15 53/23/23 45/13/13
f 20/75/75 53/23/23 8/15/15
f 43/3/3 11/2/2 54/29/29
f 54/29/29 11/2/2 77/32/32
f 17/10/10 79/91/46 55/60/60
f 55/60/60 4/9/9 59/37/37
f 40/44/44 56/19/19 71/45/45
f 56/19/19 14/87/41 16/84/68
f 57/74/74 41/101/73 46/48/48
f 6/31/31 57/74/74 46/48/48
f 80/78/78 52/71/71 58/63/63
f 58/63/63 52/71/71 23/53/53
f 17/10/10 55/60/60 59/37/37
f 59/37/37 9/11/11 17/10/10
f 64/102/56 46/48/48 41/101/73
f 78/79/79 64/56/56 41/73/73
f 61/80/80 21/54/54 24/18/18
f 62/57/57 10/81/81 28/17/17
f 10/81/81 66/30/30 26/82/82
f 63/47/47 51/42/42 25/35/35
f 69/86/12 63/47/47 18/21/21
f 39/43/43 11/2/2 65/34/34
f 60/14/14 73/52/52 64/56/56
f 81/22/22 60/14/14 64/56/56
f 65/34/34 50/104/70 39/43/43
f 10/81/81 62/57/57 72/49/49
f 49/93/16 72/49/49 62/57/57
f 19/1/1 2/100/55 67/27/27
f 31/50/50 68/4/4 40/44/44
f 40/44/44 68/4/4 56/19/19
f 69/12/12 29/25/25 51/85/42
f 69/86/12 51/42/42 63/47/47
f 75/67/67 15/8/8 37/7/7
f 16/68/68 45/13/13 71/97/45
f 16/84/68 71/45/45 56/19/19
f 66/30/30 72/49/49 6/31/31
f 10/81/81 72/49/49 66/30/30
f 73/52/52 82/51/51 2/55/55
f 48/61/61 30/77/77 74/66/66
f 70/69/69 75/67/67 37/7/7
f 65/105/34 75/67/67 70/69/69
f 23/53/53 76/76/76 47/20/20
f 42/40/40 82/51/51 29/25/25
f 77/32/32 26/82/82 66/30/30
f 78/79/79 41/73/73 20/75/75
f 81/22/22 64/56/56 78/79/79
f 34/62/62 80/78/78 7/5/5
f 81/22/22 20/75/75 8/15/15
f 81/22/22 78/79/79 20/75/75
f 67/99/27 82/51/51 42/40/40
